<?xml version="1.0" encoding="UTF-8"?>
<svg id="Layer_2" data-name="Layer 2" xmlns="http://www.w3.org/2000/svg" viewBox="0 0 313.08 68.06">
  <defs>
    <style>
      .cls-1 {
        fill: #5cc2a5;
      }

      .cls-2, .cls-3 {
        fill: #eb9f4a;
      }

      .cls-4 {
        fill: #f36e70;
      }

      .cls-3 {
        stroke: #fff;
        stroke-linecap: round;
        stroke-miterlimit: 10;
      }

      .cls-5 {
        fill: #b375f7;
      }

      .cls-6 {
        fill: #fecf84;
      }

      .cls-7 {
        fill: #baf775;
      }

      .cls-8 {
        fill: #ff7395;
      }

      .cls-9 {
        fill: #fcb566;
      }

      .cls-10 {
        fill: #d5b5d0;
      }

      .cls-11 {
        fill: #231f20;
      }
    </style>
  </defs>
  <g id="Layer_3" data-name="Layer 3">
    <g id="Variation4">
      <g id="logotype">
        <g>
          <g>
            <path class="cls-8" d="m28.92,40.9c-.63,0-1.19-.43-1.35-1.04l-4.96-18.24-4.96,18.25c-.17.61-.72,1.03-1.35,1.03h-5.31c-.62,0-1.15-.4-1.34-.98L.78,11.42c-.07-.23-.03-.48.11-.67.14-.19.37-.31.6-.31h5.58c.64,0,1.19.43,1.35,1.05l5.18,20.01,5.27-20.02c.16-.62.72-1.04,1.35-1.04h5.23c.64,0,1.2.43,1.36,1.06l5.02,19.84,5.11-19.85c.16-.62.72-1.05,1.35-1.05h5.36c.24,0,.46.11.6.3.14.19.18.44.11.67l-8.82,28.5c-.18.59-.72.99-1.34.99h-5.31Z"/>
            <path class="cls-11" d="m43.67,11.2l-8.82,28.5c-.08.27-.34.46-.62.46h-5.31c-.29,0-.55-.2-.63-.48l-5.06-18.61c-.09-.32-.36-.48-.63-.48s-.54.16-.63.48l-5.06,18.61c-.08.28-.33.48-.63.48h-5.31c-.28,0-.53-.19-.62-.46L1.5,11.2h5.58c.3,0,.55.2.63.49l5.28,20.39c.08.32.36.49.63.49s.54-.16.63-.48l5.37-20.4c.07-.29.33-.48.63-.48h5.23c.3,0,.56.2.63.49l5.12,20.22c.08.33.36.49.63.49s.54-.16.63-.49l5.21-20.23c.07-.29.33-.49.63-.49h5.36m0-1.5h-5.36c-.98,0-1.84.66-2.08,1.61l-4.38,17-4.3-16.99c-.24-.96-1.1-1.62-2.08-1.62h-5.23c-.98,0-1.83.66-2.08,1.6l-4.54,17.24-4.46-17.23c-.25-.95-1.1-1.61-2.08-1.61H1.5c-.48,0-.93.23-1.21.61-.28.38-.37.88-.22,1.33l8.87,28.5c.28.9,1.11,1.51,2.05,1.51h5.31c.97,0,1.82-.65,2.07-1.59l4.24-15.58,4.24,15.59c.25.93,1.11,1.59,2.07,1.59h5.31c.95,0,1.77-.61,2.05-1.51l8.82-28.5c.14-.46.06-.95-.23-1.33s-.73-.61-1.21-.61h0Zm0,3h0,0Z"/>
          </g>
          <g>
            <path class="cls-2" d="m58.13,41.38c-2.84,0-5.45-.66-7.75-1.96-2.31-1.3-4.15-3.17-5.47-5.54-1.31-2.36-1.98-5.13-1.98-8.22s.68-5.82,2.04-8.2c1.35-2.39,3.23-4.25,5.58-5.54,2.34-1.28,4.98-1.93,7.85-1.93s5.52.65,7.85,1.93c2.35,1.29,4.23,3.16,5.58,5.54,1.35,2.38,2.04,5.14,2.04,8.2s-.7,5.82-2.09,8.21c-1.39,2.39-3.32,4.26-5.71,5.56-2.39,1.3-5.06,1.96-7.93,1.96Zm.16-24.7c-1.4,0-2.71.34-3.9,1.01-1.19.67-2.12,1.64-2.82,2.98-.71,1.34-1.06,3.02-1.06,4.99,0,2.91.73,5.17,2.18,6.71,1.45,1.56,3.23,2.31,5.45,2.31,1.4,0,2.73-.34,3.96-1.01,1.21-.67,2.22-1.68,2.98-3.02.77-1.35,1.16-3.03,1.16-4.99s-.37-3.64-1.11-4.98c-.73-1.32-1.71-2.33-2.9-2.99-1.21-.67-2.53-1.01-3.93-1.01Z"/>
            <path class="cls-11" d="m58.39,10.72c2.76,0,5.25.61,7.49,1.84,2.23,1.23,4,2.98,5.29,5.26,1.29,2.28,1.94,4.88,1.94,7.83s-.67,5.55-1.99,7.83c-1.33,2.28-3.14,4.04-5.42,5.28-2.29,1.24-4.81,1.87-7.57,1.87s-5.19-.62-7.39-1.87c-2.2-1.24-3.93-2.99-5.19-5.25-1.26-2.26-1.89-4.88-1.89-7.86s.65-5.56,1.94-7.83c1.29-2.28,3.06-4.03,5.29-5.26,2.24-1.23,4.73-1.84,7.49-1.84m-.26,24.7c1.54,0,2.98-.37,4.32-1.1,1.34-.74,2.44-1.84,3.27-3.31.84-1.47,1.26-3.26,1.26-5.36s-.4-3.88-1.2-5.34c-.8-1.45-1.87-2.55-3.2-3.28-1.33-.74-2.76-1.1-4.3-1.1s-2.96.37-4.27,1.1c-1.31.74-2.35,1.83-3.12,3.28-.77,1.45-1.15,3.23-1.15,5.34,0,3.12.79,5.53,2.38,7.22,1.59,1.7,3.59,2.55,6,2.55m.26-26.2c-3,0-5.77.68-8.21,2.02-2.48,1.36-4.45,3.32-5.87,5.83-1.41,2.49-2.13,5.38-2.13,8.57s.7,6.11,2.08,8.59c1.39,2.5,3.33,4.46,5.76,5.83,2.42,1.37,5.15,2.06,8.12,2.06s5.78-.69,8.29-2.05c2.52-1.37,4.54-3.33,6-5.84,1.46-2.5,2.19-5.39,2.19-8.58s-.72-6.08-2.14-8.57c-1.42-2.51-3.4-4.47-5.87-5.83-2.45-1.34-5.21-2.02-8.21-2.02h0Zm-.26,24.7c-2,0-3.6-.68-4.9-2.07-1.31-1.4-1.98-3.49-1.98-6.2,0-1.85.33-3.41.98-4.64.64-1.2,1.46-2.08,2.53-2.68,1.09-.61,2.25-.91,3.54-.91s2.46.3,3.57.92c1.08.6,1.94,1.48,2.61,2.7.67,1.22,1.02,2.77,1.02,4.61s-.36,3.38-1.06,4.62c-.7,1.24-1.58,2.13-2.69,2.74-1.13.62-2.31.92-3.6.92h0Z"/>
          </g>
          <g>
            <path class="cls-6" d="m76.13,41.14c-.41,0-.75-.34-.75-.75V11.43c0-.41.34-.75.75-.75h5.97c.41,0,.75.34.75.75v1.96c.69-.73,1.48-1.35,2.36-1.85,1.56-.88,3.42-1.33,5.53-1.33.41,0,.75.34.75.75v6.2c0,.41-.34.75-.75.75h-1.52c-2.12,0-3.74.53-4.79,1.57-1.05,1.04-1.58,2.95-1.58,5.67v15.24c0,.41-.34.75-.75.75h-5.97Z"/>
            <path class="cls-11" d="m90.75,10.96v6.2h-1.52c-2.34,0-4.11.59-5.32,1.78-1.21,1.19-1.81,3.26-1.81,6.2v15.24h-5.97V11.43h5.97v4.2c.87-1.47,2.03-2.62,3.48-3.44,1.45-.82,3.17-1.23,5.16-1.23m0-1.5c-2.24,0-4.23.48-5.9,1.43-.44.25-.85.52-1.24.82v-.28c0-.83-.67-1.5-1.5-1.5h-5.97c-.83,0-1.5.67-1.5,1.5v28.96c0,.83.67,1.5,1.5,1.5h5.97c.83,0,1.5-.67,1.5-1.5v-15.24c0-2.48.47-4.25,1.36-5.14.91-.9,2.34-1.35,4.26-1.35h1.52c.83,0,1.5-.67,1.5-1.5v-6.2c0-.83-.67-1.5-1.5-1.5h0Z"/>
          </g>
          <g>
            <path class="cls-4" d="m104.37,41.61c-2.64,0-5.09-.68-7.28-2.03-2.18-1.34-3.93-3.24-5.19-5.65-1.26-2.4-1.89-5.14-1.89-8.15s.64-5.74,1.9-8.08c1.26-2.35,3.01-4.21,5.2-5.52,2.18-1.31,4.65-1.97,7.33-1.97,1.98,0,3.96.44,5.88,1.3,1.27.57,2.38,1.27,3.32,2.1V1.5c0-.41.34-.75.75-.75h6.02c.41,0,.75.34.75.75v38.89c0,.41-.34.75-.75.75h-6.02c-.41,0-.75-.34-.75-.75v-2.34c-.84.81-1.83,1.51-2.96,2.11-1.83.97-3.95,1.46-6.29,1.46Zm1.96-23.14c-1.55,0-3.01.3-4.34.88-1.31.58-2.37,1.43-3.18,2.54-.8,1.1-1.19,2.38-1.19,3.91s.4,2.86,1.19,3.98c.8,1.15,1.88,2.03,3.21,2.64,1.34.61,2.79.92,4.3.92s3-.3,4.33-.9c1.3-.59,2.37-1.46,3.18-2.6.79-1.12,1.19-2.45,1.19-3.95s-.4-2.83-1.19-3.93c-.81-1.12-1.88-1.99-3.18-2.58-1.33-.6-2.79-.91-4.33-.91Z"/>
            <path class="cls-11" d="m120.4,1.5v38.89h-6.02v-4.36c-.98,1.4-2.33,2.56-4.06,3.47-1.73.91-3.71,1.37-5.95,1.37-2.52,0-4.81-.64-6.89-1.92s-3.72-3.07-4.92-5.36c-1.2-2.3-1.81-4.9-1.81-7.81s.6-5.48,1.81-7.72c1.2-2.25,2.85-3.99,4.92-5.23,2.08-1.24,4.39-1.86,6.94-1.86,1.88,0,3.75.41,5.58,1.23,1.83.83,3.29,1.92,4.37,3.28V1.5h6.02m-14.07,32.6c1.66,0,3.2-.32,4.64-.97s2.59-1.6,3.48-2.85c.88-1.25,1.33-2.72,1.33-4.39s-.44-3.14-1.33-4.37c-.89-1.24-2.05-2.18-3.48-2.82-1.43-.65-2.98-.97-4.64-.97s-3.21.32-4.64.95c-1.43.64-2.59,1.56-3.48,2.78-.89,1.22-1.33,2.67-1.33,4.35s.44,3.15,1.33,4.41c.89,1.26,2.06,2.23,3.51,2.89,1.45.66,2.99.99,4.61.99M120.4,0h-6.02c-.83,0-1.5.67-1.5,1.5v10.58c-.69-.47-1.44-.89-2.26-1.26-2.02-.91-4.1-1.36-6.19-1.36-2.82,0-5.41.7-7.71,2.08-2.31,1.38-4.15,3.34-5.48,5.81-1.32,2.45-1.99,5.29-1.99,8.43s.67,6,1.98,8.5c1.33,2.53,3.17,4.52,5.47,5.94,2.31,1.42,4.89,2.14,7.68,2.14,2.47,0,4.7-.52,6.64-1.54.67-.35,1.29-.74,1.86-1.16v.73c0,.83.67,1.5,1.5,1.5h6.02c.83,0,1.5-.67,1.5-1.5V1.5c0-.83-.67-1.5-1.5-1.5h0Zm-14.07,32.6c-1.4,0-2.74-.29-3.99-.86-1.22-.56-2.17-1.34-2.9-2.39-.71-1.01-1.06-2.18-1.06-3.55s.34-2.5,1.04-3.46c.73-1.01,1.67-1.76,2.87-2.29,1.23-.54,2.59-.82,4.03-.82s2.77.27,4.02.84c1.2.54,2.14,1.3,2.88,2.33.7.98,1.05,2.13,1.05,3.5s-.34,2.52-1.05,3.52c-.74,1.04-1.68,1.81-2.87,2.35-1.23.56-2.59.84-4.02.84h0Z"/>
          </g>
        </g>
        <g>
          <g>
            <rect class="cls-10" x="192.73" y="1.05" width="7.47" height="40.15" rx=".75" ry=".75"/>
            <path class="cls-11" d="m199.45,1.8v38.65h-5.97V1.8h5.97m0-1.5h-5.97c-.83,0-1.5.67-1.5,1.5v38.65c0,.83.67,1.5,1.5,1.5h5.97c.83,0,1.5-.67,1.5-1.5V1.8c0-.83-.67-1.5-1.5-1.5h0Z"/>
          </g>
          <g>
            <path class="cls-1" d="m217.08,41.49c-2.88,0-5.49-.66-7.78-1.96-2.29-1.3-4.12-3.15-5.42-5.51-1.3-2.35-1.95-5.1-1.95-8.17s.64-5.82,1.9-8.17c1.27-2.36,3.08-4.21,5.38-5.49,2.28-1.28,4.94-1.92,7.88-1.92s5.41.63,7.65,1.87c2.25,1.25,4.02,3.02,5.27,5.28,1.25,2.25,1.88,4.86,1.88,7.75,0,1.11-.07,2.13-.22,3.04-.06.36-.37.63-.74.63h-21.21c.32,2.16.98,3.1,2.23,4.23,1.41,1.28,3.09,1.9,5.15,1.9,2.52,0,4.34-.86,5.57-2.64.61-.88,1.51-1.38,2.46-1.38h5.22c.24,0,.47.12.61.31.14.2.18.45.1.67-.92,2.78-2.6,5.09-5.01,6.87-2.41,1.78-5.42,2.68-8.96,2.68Zm7.01-18.95c-.18-1.62-.85-2.92-2.05-3.96-1.41-1.21-3.12-1.8-5.22-1.8-1.89,0-3.45.58-4.79,1.77-1.15,1.02-1.89,2.33-2.23,3.99h14.3Z"/>
            <path class="cls-11" d="m217.08,11.02c2.72,0,5.15.59,7.28,1.78,2.13,1.18,3.79,2.84,4.98,4.99,1.19,2.14,1.78,4.6,1.78,7.39,0,1.08-.07,2.05-.21,2.92h-22.06c.28,2.91,1.03,4.14,2.57,5.53,1.53,1.39,3.42,2.09,5.66,2.09,2.76,0,4.82-.99,6.19-2.96.43-.62,1.09-1.06,1.85-1.06h5.22c-.87,2.64-2.45,4.81-4.74,6.5-2.29,1.69-5.12,2.53-8.51,2.53-2.76,0-5.23-.62-7.41-1.86-2.18-1.23-3.89-2.98-5.13-5.22-1.24-2.25-1.86-4.85-1.86-7.81s.6-5.56,1.81-7.81c1.2-2.24,2.9-3.97,5.08-5.19,2.18-1.22,4.69-1.83,7.52-1.83m-8.17,12.27h15.98c-.04-2.19-.82-3.95-2.36-5.27-1.54-1.32-3.44-1.98-5.71-1.98-2.06,0-3.82.65-5.29,1.96s-2.34,3.07-2.62,5.3m21.42,8.41h0m-13.26-22.18c-3.08,0-5.85.68-8.25,2.02-2.43,1.36-4.34,3.31-5.67,5.79-1.32,2.46-1.99,5.33-1.99,8.52s.69,6.07,2.05,8.53c1.37,2.48,3.29,4.44,5.71,5.8,2.4,1.36,5.14,2.05,8.15,2.05,3.7,0,6.86-.95,9.4-2.83,2.51-1.86,4.27-4.26,5.25-7.16.07-.17.11-.36.11-.55,0-.83-.67-1.5-1.5-1.5h-5.22c-1.2,0-2.33.62-3.08,1.7-1.08,1.56-2.7,2.32-4.96,2.32-1.87,0-3.39-.56-4.65-1.7-.95-.86-1.5-1.57-1.83-2.92h20.31c.74,0,1.37-.54,1.48-1.26.15-.95.23-2.01.23-3.16,0-3.03-.66-5.76-1.97-8.12-1.32-2.38-3.19-4.26-5.56-5.57-2.34-1.3-5.04-1.97-8.01-1.97h0Zm-6.31,12.27c.36-1.08.94-1.96,1.75-2.68,1.2-1.06,2.6-1.58,4.29-1.58,1.91,0,3.46.53,4.73,1.62.83.72,1.38,1.59,1.64,2.64h-12.42Z"/>
          </g>
          <g>
            <path class="cls-5" d="m266.67,40.77c-.41,0-.75-.34-.75-.75V11.73c0-.41.34-.75.75-.75h5.97c.41,0,.75.34.75.75v1.91c.69-.71,1.48-1.32,2.37-1.82,1.56-.86,3.41-1.3,5.52-1.3.41,0,.75.34.75.75v6.06c0,.41-.34.75-.75.75h-1.52c-2.13,0-3.74.52-4.8,1.53-1.05,1.01-1.58,2.87-1.58,5.52v14.89c0,.41-.34.75-.75.75h-5.97Z"/>
            <path class="cls-11" d="m281.29,11.27v6.06h-1.52c-2.34,0-4.11.58-5.32,1.74-1.21,1.17-1.81,3.18-1.81,6.06v14.89h-5.97V11.73h5.97v4.11c.87-1.44,2.03-2.56,3.48-3.36,1.45-.8,3.17-1.2,5.16-1.2m0-1.5c-2.24,0-4.22.47-5.89,1.39-.44.25-.86.52-1.26.81v-.25c0-.83-.67-1.5-1.5-1.5h-5.97c-.83,0-1.5.67-1.5,1.5v28.29c0,.83.67,1.5,1.5,1.5h5.97c.83,0,1.5-.67,1.5-1.5v-14.89c0-2.4.47-4.13,1.35-4.98.91-.88,2.35-1.32,4.27-1.32h1.52c.83,0,1.5-.67,1.5-1.5v-6.06c0-.83-.67-1.5-1.5-1.5h0Z"/>
          </g>
          <g>
            <path class="cls-7" d="m305.66,40.77c-.41,0-.75-.34-.75-.75v-16.08c0-2.37-.58-4.19-1.73-5.41-1.16-1.23-2.71-1.83-4.75-1.83s-3.6.6-4.78,1.83c-1.17,1.22-1.76,3.04-1.76,5.41v16.08c0,.41-.34.75-.75.75h-5.97c-.41,0-.75-.34-.75-.75V11.25c0-.41.34-.75.75-.75h5.97c.41,0,.75.34.75.75v1.48c.79-.66,1.69-1.21,2.7-1.65,1.61-.7,3.34-1.05,5.14-1.05,2.38,0,4.55.5,6.45,1.49,1.93,1.01,3.45,2.52,4.53,4.48,1.07,1.95,1.61,4.32,1.61,7.04v16.97c0,.41-.34.75-.75.75h-5.92Z"/>
            <path class="cls-11" d="m299.74,10.78c2.27,0,4.3.47,6.1,1.41,1.8.94,3.2,2.33,4.22,4.18,1.01,1.84,1.52,4.07,1.52,6.68v16.97h-5.92v-16.08c0-2.57-.65-4.55-1.94-5.92-1.29-1.38-3.06-2.06-5.29-2.06s-4.01.69-5.32,2.06c-1.31,1.37-1.96,3.35-1.96,5.92v16.08h-5.97V11.25h5.97v3.29c.98-1.18,2.23-2.1,3.75-2.77,1.52-.66,3.13-.99,4.85-.99m0-1.5c-1.91,0-3.74.37-5.44,1.11-.58.25-1.13.54-1.65.87h0c0-.84-.67-1.51-1.5-1.51h-5.97c-.83,0-1.5.67-1.5,1.5v28.77c0,.83.67,1.5,1.5,1.5h5.97c.83,0,1.5-.67,1.5-1.5v-16.08c0-2.17.52-3.81,1.55-4.89,1.03-1.08,2.41-1.6,4.23-1.6s3.19.52,4.2,1.59c1.02,1.08,1.53,2.73,1.53,4.9v16.08c0,.83.67,1.5,1.5,1.5h5.92c.83,0,1.5-.67,1.5-1.5v-16.97c0-2.85-.57-5.34-1.7-7.4-1.15-2.1-2.78-3.71-4.84-4.79-2.01-1.05-4.29-1.58-6.8-1.58h0Z"/>
          </g>
          <g>
            <path class="cls-9" d="m247.53,41.25c-2.57,0-4.95-.67-7.09-1.99-2.14-1.32-3.85-3.18-5.09-5.53-1.24-2.34-1.86-5.03-1.86-7.98s.63-5.61,1.87-7.91c1.25-2.31,2.97-4.12,5.12-5.4,2.16-1.28,4.57-1.93,7.16-1.93,2.34,0,4.43.47,6.2,1.4,1.1.58,2.07,1.25,2.9,2.01v-2.19c0-.41.34-.75.75-.75h5.93c.41,0,.75.34.75.75v28.31c0,.41-.34.75-.75.75h-5.93c-.41,0-.75-.34-.75-.75v-2.27c-.84.78-1.84,1.47-2.98,2.06-1.82.94-3.91,1.42-6.22,1.42Zm1.72-22.27c-1.59,0-3.1.28-4.48.83-1.34.54-2.44,1.33-3.27,2.37-.81,1.01-1.2,2.19-1.2,3.6s.4,2.61,1.21,3.66c.83,1.08,1.93,1.9,3.29,2.47,1.39.58,2.89.87,4.44.87s3.11-.29,4.48-.85c1.34-.55,2.44-1.37,3.27-2.43.81-1.04,1.21-2.24,1.21-3.64s-.39-2.59-1.2-3.62c-.82-1.05-1.92-1.86-3.27-2.41-1.37-.57-2.88-.85-4.48-.85Z"/>
            <path class="cls-11" d="m247.63,11.27c2.23,0,4.18.44,5.85,1.31,1.67.87,3,1.96,3.99,3.26v-4.11h5.93v28.31h-5.93v-4.21c-1,1.34-2.35,2.45-4.07,3.34-1.72.89-3.68,1.34-5.87,1.34-2.44,0-4.67-.63-6.7-1.88-2.03-1.25-3.64-2.99-4.82-5.24-1.18-2.24-1.78-4.79-1.78-7.63s.59-5.36,1.78-7.55,2.8-3.9,4.84-5.11c2.04-1.21,4.3-1.83,6.77-1.83m1.62,22.27c1.7,0,3.29-.3,4.76-.91,1.47-.6,2.66-1.49,3.57-2.66.91-1.17,1.36-2.54,1.36-4.1s-.46-2.93-1.36-4.08c-.91-1.16-2.1-2.04-3.57-2.64-1.47-.61-3.06-.91-4.76-.91s-3.29.3-4.76.89c-1.47.59-2.66,1.46-3.57,2.6s-1.36,2.49-1.36,4.06.45,2.94,1.36,4.12c.91,1.19,2.11,2.09,3.6,2.7,1.49.62,3.07.93,4.73.93m-1.62-23.77c-2.73,0-5.27.69-7.54,2.04-2.27,1.35-4.09,3.26-5.4,5.69-1.3,2.4-1.96,5.19-1.96,8.26s.66,5.88,1.95,8.33c1.3,2.47,3.11,4.43,5.36,5.81,2.26,1.39,4.78,2.1,7.48,2.1,2.43,0,4.64-.51,6.56-1.51.67-.35,1.3-.73,1.88-1.15v.69c0,.83.67,1.5,1.5,1.5h5.93c.83,0,1.5-.67,1.5-1.5V11.73c0-.83-.67-1.5-1.5-1.5h-5.93c-.83,0-1.5.67-1.5,1.5v.62c-.56-.4-1.16-.77-1.8-1.1-1.88-.98-4.08-1.48-6.55-1.48h0Zm1.62,22.27c-1.46,0-2.86-.27-4.15-.81-1.26-.52-2.24-1.25-2.99-2.23-.71-.92-1.05-1.97-1.05-3.21s.34-2.26,1.04-3.13c.76-.95,1.72-1.65,2.96-2.14,1.29-.52,2.7-.78,4.2-.78s2.91.27,4.19.8c1.24.51,2.21,1.22,2.97,2.18.7.89,1.04,1.93,1.04,3.16s-.34,2.27-1.05,3.18c-.75.97-1.72,1.68-2.96,2.19-1.28.53-2.69.8-4.19.8h0Z"/>
          </g>
        </g>
      </g>
      <path class="cls-3" d="m156.6,67.56c-15.57,0-28.76-8.42-31.52-19.63-.45-1.83,1.05-3.59,3.1-3.66h.01c1.58-.06,2.99.91,3.34,2.32,2.16,8.57,13.36,15.16,25.88,14.91,11.97-.27,21.99-6.52,24.14-14.65.37-1.39,1.83-2.3,3.39-2.21,2.04.12,3.51,1.9,3.02,3.71-2.91,10.69-15.46,18.86-30.39,19.2-.33,0-.66.01-.99.01Z"/>
      <g>
        <path class="cls-2" d="m165.18,19.28c.71-1.32,1.68-2.35,2.9-3.08s2.59-1.1,4.09-1.1c1.11,0,2.21.24,3.29.73,1.08.49,1.94,1.13,2.58,1.94v-8.24h3.55v22.92h-3.55v-2.57c-.58.83-1.37,1.51-2.39,2.04s-2.19.81-3.5.81c-1.48,0-2.84-.38-4.06-1.13s-2.19-1.81-2.9-3.16c-.71-1.35-1.07-2.89-1.07-4.6s.36-3.23,1.07-4.55Zm12.9,2.04c-.52-.73-1.21-1.28-2.05-1.66-.85-.38-1.76-.57-2.73-.57s-1.89.19-2.73.56c-.85.37-1.53.92-2.05,1.64s-.78,1.57-.78,2.56.26,1.86.78,2.6,1.21,1.31,2.07,1.7c.85.39,1.76.58,2.72.58s1.89-.19,2.73-.57,1.53-.94,2.05-1.68c.52-.74.78-1.6.78-2.59s-.26-1.85-.78-2.58Z"/>
        <path class="cls-2" d="m128.21,19.82c.7-1.29,1.65-2.3,2.86-3.01,1.2-.72,2.53-1.08,3.99-1.08,1.32,0,2.46.26,3.45.77s1.77,1.16,2.35,1.92v-2.42h3.49v16.69h-3.49v-2.48c-.59.79-1.39,1.44-2.4,1.97s-2.17.79-3.46.79c-1.44,0-2.75-.37-3.95-1.11-1.2-.74-2.14-1.76-2.84-3.09-.7-1.32-1.05-2.82-1.05-4.5s.35-3.16,1.05-4.45Zm12.72,2.11c-.54-.68-1.24-1.2-2.11-1.56-.87-.36-1.8-.54-2.81-.54s-1.94.18-2.81.52c-.87.35-1.57.86-2.11,1.53s-.8,1.47-.8,2.4.27,1.73.8,2.43c.54.7,1.24,1.23,2.12,1.59.88.37,1.81.55,2.79.55s1.94-.18,2.81-.54c.87-.36,1.57-.88,2.11-1.57.53-.69.8-1.49.8-2.42s-.27-1.73-.8-2.41Z"/>
        <path class="cls-2" d="m158.6,16.7c1.04.54,1.84,1.35,2.43,2.42.58,1.07.87,2.36.87,3.87v9.83h-3.41v-9.31c0-1.49-.37-2.64-1.11-3.43-.74-.8-1.76-1.2-3.04-1.2s-2.31.4-3.06,1.2-1.13,1.94-1.13,3.43v9.31h-3.44v-16.66h3.44v1.91c.56-.69,1.28-1.22,2.16-1.6s1.8-.57,2.79-.57c1.31,0,2.48.27,3.51.82Z"/>
      </g>
    </g>
  </g>
</svg>