<?xml version="1.0" encoding="UTF-8"?>
<svg id="Layer_2" data-name="Layer 2" xmlns="http://www.w3.org/2000/svg" viewBox="0 0 324.42 63.93">
  <defs>
    <style>
      .cls-1 {
        fill: #ffc61a;
      }

      .cls-2 {
        fill: #1ea2cf;
      }
    </style>
  </defs>
  <g id="Layer_1-2" data-name="Layer 1">
    <g id="Variation4">
      <g id="logotype">
        <g>
          <path class="cls-1" d="m42.17,9.93l-8.82,28.5c-.08.27-.34.46-.62.46h-5.31c-.29,0-.55-.2-.63-.48l-5.06-18.61c-.17-.64-1.08-.64-1.25,0l-5.06,18.61c-.08.28-.33.48-.63.48h-5.31c-.28,0-.53-.19-.62-.46L0,9.93h5.58c.3,0,.55.2.63.49l5.28,20.39c.17.65,1.08.65,1.26,0l5.37-20.4c.08-.29.33-.48.63-.48h5.23c.3,0,.56.2.63.49l5.12,20.22c.17.65,1.09.65,1.26,0l5.21-20.23c.07-.29.33-.49.63-.49h5.36Z"/>
          <path class="cls-1" d="m51.76,37.5c-2.2-1.24-3.93-2.99-5.19-5.25-1.26-2.26-1.89-4.88-1.89-7.86s.65-5.56,1.94-7.83c1.29-2.28,3.06-4.03,5.29-5.26,2.24-1.23,4.73-1.84,7.49-1.84s5.25.61,7.49,1.84c2.23,1.23,4,2.98,5.29,5.26,1.29,2.28,1.94,4.88,1.94,7.83s-.67,5.55-1.99,7.83c-1.33,2.28-3.14,4.04-5.42,5.28-2.29,1.24-4.81,1.87-7.57,1.87s-5.19-.62-7.39-1.87Zm11.71-4.44c1.35-.74,2.44-1.84,3.27-3.31.84-1.47,1.26-3.26,1.26-5.36s-.4-3.88-1.2-5.34-1.87-2.55-3.2-3.28c-1.33-.74-2.76-1.1-4.3-1.1s-2.96.37-4.27,1.1c-1.31.74-2.35,1.83-3.12,3.28-.77,1.45-1.15,3.23-1.15,5.34,0,3.12.79,5.53,2.38,7.22,1.59,1.7,3.59,2.55,6,2.55,1.54,0,2.98-.37,4.32-1.1Z"/>
          <path class="cls-1" d="m89.5,10.69c1.45-.82,3.17-1.23,5.16-1.23v6.2h-1.52c-2.34,0-4.11.59-5.32,1.78-1.21,1.19-1.81,3.26-1.81,6.2v15.24h-5.97V9.93h5.97v4.2c.87-1.47,2.03-2.62,3.48-3.44Z"/>
          <path class="cls-1" d="m99.98,16.56c1.2-2.25,2.85-3.99,4.92-5.23s4.39-1.86,6.94-1.86c1.88,0,3.75.41,5.58,1.23,1.83.83,3.29,1.92,4.37,3.28V0h6.02v38.89h-6.02v-4.36c-.98,1.4-2.33,2.56-4.06,3.47s-3.71,1.37-5.94,1.37c-2.52,0-4.81-.64-6.89-1.92-2.08-1.28-3.72-3.07-4.92-5.36-1.2-2.3-1.81-4.9-1.81-7.81s.6-5.48,1.81-7.72Zm21.89,3.47c-.89-1.24-2.05-2.18-3.48-2.82-1.43-.65-2.98-.97-4.64-.97s-3.21.32-4.64.95c-1.43.64-2.59,1.56-3.48,2.78s-1.33,2.67-1.33,4.35.44,3.15,1.33,4.41,2.06,2.23,3.51,2.89c1.45.66,2.99.99,4.61.99s3.2-.32,4.64-.97c1.43-.65,2.59-1.6,3.48-2.85.88-1.25,1.33-2.72,1.33-4.39s-.44-3.14-1.33-4.37Z"/>
        </g>
        <g>
          <path class="cls-1" d="m202.2.12v38.65h-5.97V.12h5.97Z"/>
          <path class="cls-1" d="m236.31,26.6h-22.06c.28,2.91,1.03,4.14,2.57,5.53,1.53,1.39,3.42,2.09,5.66,2.09,2.76,0,4.82-.99,6.19-2.96.43-.62,1.09-1.06,1.85-1.06h5.22c-.87,2.64-2.45,4.81-4.74,6.5-2.29,1.69-5.12,2.53-8.51,2.53-2.76,0-5.23-.62-7.41-1.86-2.18-1.23-3.89-2.98-5.13-5.22-1.24-2.25-1.86-4.85-1.86-7.81s.6-5.56,1.81-7.81c1.2-2.24,2.9-3.97,5.08-5.19,2.18-1.22,4.69-1.83,7.52-1.83s5.15.59,7.28,1.78c2.13,1.18,3.79,2.84,4.98,4.99s1.78,4.6,1.78,7.39c0,1.08-.07,2.05-.21,2.92Zm-6.02-4.81c-.04-2.19-.82-3.95-2.36-5.27-1.54-1.32-3.44-1.98-5.71-1.98-2.06,0-3.82.65-5.29,1.96-1.47,1.3-2.34,3.07-2.62,5.3h15.98Z"/>
          <path class="cls-1" d="m287.35,10.75c1.45-.82,3.17-1.22,5.16-1.22v6.16h-1.52c-2.34,0-4.11.59-5.32,1.77-1.21,1.19-1.81,3.24-1.81,6.16v15.15h-5.97V9.99h5.97v4.18c.87-1.46,2.03-2.6,3.48-3.42Z"/>
          <path class="cls-1" d="m318.68,10.93c1.8.94,3.2,2.33,4.22,4.18,1.01,1.84,1.52,4.07,1.52,6.68v16.98h-5.92v-16.09c0-2.58-.65-4.55-1.94-5.93-1.29-1.38-3.06-2.07-5.29-2.07s-4.01.69-5.32,2.07c-1.31,1.37-1.96,3.35-1.96,5.93v16.09h-5.97V9.99h5.97v3.29c.98-1.18,2.23-2.1,3.75-2.77,1.52-.66,3.13-.99,4.85-.99,2.27,0,4.3.47,6.1,1.41Z"/>
          <path class="cls-1" d="m242.31,16.71c1.18-2.19,2.8-3.9,4.84-5.11,2.04-1.21,4.3-1.83,6.77-1.83,2.23,0,4.18.44,5.85,1.31s3,1.96,3.99,3.26v-4.11h5.93v28.31h-5.93v-4.21c-1,1.34-2.35,2.45-4.07,3.34-1.72.89-3.68,1.34-5.87,1.34-2.44,0-4.67-.63-6.7-1.88-2.03-1.25-3.63-2.99-4.82-5.24-1.18-2.24-1.78-4.79-1.78-7.63s.59-5.36,1.78-7.55Zm21.58,3.57c-.91-1.16-2.1-2.04-3.57-2.64-1.47-.61-3.06-.91-4.76-.91s-3.29.3-4.76.89c-1.47.59-2.66,1.46-3.57,2.6-.91,1.14-1.36,2.49-1.36,4.06s.45,2.94,1.36,4.12c.91,1.19,2.11,2.09,3.6,2.7,1.49.62,3.07.93,4.73.93s3.29-.3,4.76-.91c1.47-.6,2.66-1.49,3.57-2.66.91-1.17,1.36-2.54,1.36-4.1s-.46-2.93-1.36-4.08Z"/>
        </g>
      </g>
      <path class="cls-2" d="m161.67,63.93c-15.57,0-28.75-8.42-31.52-19.63-.45-1.83,1.05-3.59,3.1-3.66h.01c1.58-.06,2.99.91,3.34,2.32,2.16,8.57,13.36,15.16,25.88,14.91,11.97-.27,21.99-6.52,24.14-14.65.37-1.39,1.83-2.3,3.39-2.21h0c2.04.12,3.51,1.9,3.02,3.71-2.91,10.69-15.46,18.86-30.39,19.2-.33,0-.66.01-.99.01Z"/>
      <g>
        <path class="cls-2" d="m171.47,17.78c.71-1.32,1.68-2.35,2.9-3.08,1.23-.73,2.59-1.1,4.09-1.1,1.11,0,2.21.24,3.29.73,1.08.49,1.94,1.13,2.58,1.94v-8.24h3.55v22.92h-3.55v-2.57c-.58.83-1.37,1.51-2.39,2.04s-2.19.81-3.5.81c-1.48,0-2.84-.38-4.06-1.13s-2.19-1.81-2.9-3.16c-.71-1.35-1.07-2.89-1.07-4.6s.36-3.23,1.07-4.55Zm12.9,2.04c-.52-.73-1.21-1.28-2.05-1.66-.85-.38-1.76-.57-2.73-.57s-1.89.19-2.73.56c-.85.37-1.53.92-2.05,1.64s-.78,1.57-.78,2.56.26,1.86.78,2.6,1.21,1.31,2.07,1.7c.85.39,1.76.58,2.72.58s1.89-.19,2.73-.57,1.53-.94,2.05-1.68c.52-.74.78-1.6.78-2.59s-.26-1.85-.78-2.58Z"/>
        <path class="cls-2" d="m134.5,18.32c.7-1.29,1.65-2.3,2.86-3.01,1.2-.72,2.53-1.08,3.99-1.08,1.32,0,2.46.26,3.45.77s1.77,1.16,2.35,1.92v-2.42h3.49v16.69h-3.49v-2.48c-.59.79-1.39,1.44-2.4,1.97s-2.17.79-3.46.79c-1.44,0-2.75-.37-3.95-1.11-1.2-.74-2.14-1.76-2.84-3.09-.7-1.32-1.05-2.82-1.05-4.5s.35-3.16,1.05-4.45Zm12.72,2.11c-.54-.68-1.24-1.2-2.11-1.56-.87-.36-1.8-.54-2.81-.54s-1.94.18-2.81.52c-.87.35-1.57.86-2.11,1.53s-.8,1.47-.8,2.4.27,1.73.8,2.43c.54.7,1.24,1.23,2.12,1.59.88.37,1.81.55,2.79.55s1.94-.18,2.81-.54c.87-.36,1.57-.88,2.11-1.57.53-.69.8-1.49.8-2.42s-.27-1.73-.8-2.41Z"/>
        <path class="cls-2" d="m164.89,15.2c1.04.54,1.84,1.35,2.43,2.42.58,1.07.87,2.36.87,3.87v9.83h-3.41v-9.31c0-1.49-.37-2.64-1.11-3.43-.74-.8-1.76-1.2-3.04-1.2s-2.31.4-3.06,1.2-1.13,1.94-1.13,3.43v9.31h-3.44V14.65h3.44v1.91c.56-.69,1.28-1.22,2.16-1.6s1.8-.57,2.79-.57c1.31,0,2.48.27,3.51.82Z"/>
      </g>
    </g>
  </g>
</svg>