<?xml version="1.0" encoding="UTF-8"?>
<svg xmlns="http://www.w3.org/2000/svg" viewBox="0 0 1024 1024">
  <defs>
    <style>
      .cls-1 {
        fill: #fff;
      }

      .cls-2, .cls-3 {
        opacity: .5;
      }

      .cls-4 {
        isolation: isolate;
      }

      .cls-5 {
        fill: #ff9f40;
      }

      .cls-6 {
        fill: #ff9f9f;
      }

      .cls-3 {
        mix-blend-mode: soft-light;
      }

      .cls-7 {
        fill: #f6d286;
      }

      .cls-8 {
        fill: #f2b851;
      }

      .cls-9 {
        mix-blend-mode: multiply;
        opacity: .3;
      }

      .cls-10 {
        fill: #c0ddff;
      }

      .cls-11 {
        fill: #baa3cf;
      }

      .cls-12 {
        fill: #3e4f56;
      }
    </style>
  </defs>
  <g class="cls-4">
    <g id="Layer_2" data-name="Layer 2">
      <g id="Layer_3" data-name="Layer 3">
        <rect class="cls-11" width="1024" height="1024"/>
        <g>
          <g>
            <g>
              <path class="cls-1" d="m327.26,593.03c5.63-17.83,14.95-41.88,19.93-54.43-5.73-7.59-14.06-20.54-20.4-38.32-9.47-26.54-16.45-69.81,4.09-125.22,16.63-44.88,48.91-80.49,93.35-102.98,32.17-16.27,63.7-22.04,77.26-22.89,13.56-.84,45.57.97,79.5,13.12,46.9,16.8,83.35,48.13,105.42,90.6,20.35,39.14,25.02,73.57,22.92,101.31,8.92-4.11,18.23-6.19,26.77-3.92,8.54,2.27,14.97,8.67,17.63,17.54,2.81,9.38,3.89,26.97-19.11,71.25-9.7,18.68-20.79,36.59-27.87,47.57,4.53,9.31,8.66,18.59,12.31,27.7l.46,1.05c34.12-43.57,54.46-98.44,54.46-158.06,0-141.71-114.88-256.59-256.59-256.59s-256.59,114.88-256.59,256.59c0,60.91,21.24,116.85,56.69,160.86,2.51-8.01,5.72-16.42,9.75-25.17Z"/>
              <path class="cls-1" d="m355.6,602.92l-.3.95-.42.91c-7.28,15.63-11.1,29-13.04,39.67,6.21,5.83,12.71,11.35,19.48,16.55l17.65-18.41.84,31.36c39.76,25.31,86.97,39.99,137.6,39.99,69.07,0,131.77-27.3,177.89-71.7-1.79-8.74-3.58-14.96-4.16-16.9l-.36-.93c-4.24-10.47-9.16-21.21-14.63-31.93l-3.99-7.82,4.86-7.31c5.43-8.18,19.33-29.62,31-52.08,13.72-26.41,16.65-39.45,17.11-45.1-5.39,1.9-15.33,7.45-27.67,19.16l-44.5,42.23,19.99-58c8.65-25.1,13.4-65.75-13.15-116.81-18.78-36.15-48.69-61.78-88.91-76.19-36.75-13.16-67.22-11.44-67.52-11.42-.3.02-30.75,2.09-65.59,19.72-38.11,19.28-64.61,48.43-78.77,86.63-13.75,37.11-15.25,71.87-4.46,103.3,8.09,23.54,20.46,36.46,20.58,36.59l7,7.04-3.8,9.13c-.15.38-15.4,37.93-22.73,61.38Z"/>
            </g>
            <circle class="cls-1" cx="304.15" cy="334.21" r="38.52"/>
            <circle class="cls-1" cx="300.02" cy="246.16" r="20.64"/>
            <circle class="cls-1" cx="224.36" cy="265.42" r="15.13"/>
            <circle class="cls-1" cx="696.25" cy="284.69" r="39.9"/>
            <circle class="cls-1" cx="696.25" cy="181.5" r="19.26"/>
          </g>
          <g>
            <g class="cls-9">
              <ellipse class="cls-12" cx="524.97" cy="840.05" rx="149.96" ry="26.14"/>
            </g>
            <path class="cls-8" d="m448,804.05s-4.07,6.06-1.44,17.24c2.63,11.18,13.5,9.42,18.24,1.85,0,0,2.22,8.11,9.59,9.05s13.6-10.84,13.6-10.84c0,0,4.72,7.1,11.58,7.07,6.86-.02,11.31-11.96,10.09-20.36-1.22-8.4-60.17-6.82-61.66-4Z"/>
            <path class="cls-5" d="m364.43,535.89s-20.38,50.09-25.88,72.11,21.1,26.6,31.18,20.18,31.18-25.68,31.18-25.68c0,0-21.1,50.45,87.13,22.93s148.59-62.37,144-66.04-11.01-11.01-57.78-14.68-124.74,13.76-137.58,13.76-72.26-22.58-72.26-22.58Z"/>
            <path class="cls-5" d="m692.51,748.63c-40.76,42.62-130.47,56.06-130.62,56.09s-89.17,17.47-141.86-8.99c-52.75-26.48-55.11-116.83-55.11-116.83,0,0-18.11,19.03-29.44,16.33-11.33-2.69-24.99-58.36,27.39-134.11,0,0,18.75,10.26,50.94,16.99,47.22,9.9,123.33,12.23,211.58-36.44,9.33-5.13,18.8-10.85,28.38-17.18,2.52-1.66,4.99-3.35,7.42-5.06-2.29,3.67-4.71,7.25-6.43,8.93,0,0,29.54,39.5,50.44,91.73,0,.02.02.04.02.06.77,2.41,27.51,86.46-12.71,128.49Z"/>
            <path class="cls-5" d="m673.07,516.66s-3.63,5.23-7.56,10.22c-2.6,1.43-5.23,2.84-7.92,4.22-10.21,5.26-20.24,9.91-30.08,14-93.03,38.79-168.43,28.2-214.29,13.22-31.26-10.2-48.79-22.43-48.79-22.43,0,0-56.21-56.53-19.49-155.62,36.7-99.07,140.3-115.04,157.49-116.11,8.59-.54,39.08-.06,73.52,12.27,34.43,12.33,72.81,36.51,97.16,83.39,48.73,93.76-.03,156.84-.03,156.84Z"/>
            <path class="cls-1" d="m667.72,445.93c-10.56,69.58-51.09,81.29-51.09,81.29,0,0,4.68,6.3,10.88,17.88-93.03,38.79-168.43,28.2-214.29,13.22,4.69-12.18,8.53-18.96,8.53-18.96,0,0-41.67-6.59-60.79-74.32-19.11-67.73,43.57-122.49,96.84-94.25,53.26,28.23,45.86,88.74,45.86,88.74l10.51-.69.78-.05,10.51-.61s-14.85-59.12,34.5-93.75c49.34-34.63,118.33,11.93,107.78,81.51Z"/>
            <ellipse class="cls-7" cx="514.3" cy="472.03" rx="34.77" ry="19.11" transform="translate(-28.35 32.89) rotate(-3.56)"/>
            <path class="cls-12" d="m488.14,469.58c.47,1.33,1.26,2.32,2.14,3.12.9.8,1.97,1.38,3.02,1.9,2.19.99,4.55,1.62,6.94,2.08,4.8.89,9.75,1.13,14.6.82,4.85-.35,9.64-1.17,14.1-2.93,4.47-1.75,8.54-4.49,12.16-8.71-.32,2.76-1.44,5.46-3.08,7.86-1.64,2.4-3.83,4.45-6.27,6.09-4.92,3.27-10.71,4.85-16.43,5.24-5.73.36-11.52-.49-16.87-2.71-2.65-1.14-5.23-2.64-7.36-4.75-1.03-1.1-1.99-2.29-2.57-3.71-.59-1.4-.76-2.96-.4-4.3Z"/>
            <circle class="cls-12" cx="435.1" cy="445.87" r="28.13"/>
            <circle class="cls-1" cx="444.59" cy="435.7" r="7.58"/>
            <circle class="cls-6" cx="402.33" cy="490.34" r="16.2"/>
            <circle class="cls-6" cx="628.21" cy="476.27" r="16.2"/>
            <path class="cls-5" d="m687.27,588.98s60.59-88.49,52.1-116.82c-7.34-24.48-60.54,12.33-86.81,61.39,0,0,23.3,37.86,34.71,55.43Z"/>
            <circle class="cls-12" cx="594.38" cy="435.95" r="28.13"/>
            <circle class="cls-1" cx="603.87" cy="425.78" r="7.58"/>
            <g class="cls-2">
              <path class="cls-10" d="m475.87,442.72c1.43,23.01-16.06,42.81-39.05,44.24-1.28.08-2.54.1-3.79.07-4.32-.12-8.48-.9-12.39-2.25-3.12-1.08-6.09-2.51-8.83-4.27-6.78-4.32-12.25-10.56-15.62-18-2.03-4.48-3.29-9.39-3.61-14.59-1.43-23.01,16.06-42.81,39.06-44.24,5.99-.37,11.77.54,17.06,2.5,5.42,2,10.34,5.11,14.44,9.06,2.37,2.27,4.47,4.81,6.24,7.6.39.58.74,1.18,1.08,1.79,3.08,5.37,5.01,11.51,5.42,18.11Z"/>
            </g>
            <g class="cls-2">
              <path class="cls-10" d="m635.15,432.8c1.43,23.01-16.05,42.81-39.05,44.24-2.15.13-4.26.11-6.35-.09-4.14-.36-8.13-1.35-11.86-2.85-3.02-1.22-5.88-2.79-8.52-4.67-6.54-4.63-11.71-11.13-14.72-18.77-1.56-3.95-2.53-8.21-2.8-12.68-1.43-23.01,16.05-42.81,39.05-44.24,5.26-.33,10.36.34,15.1,1.82,5.53,1.74,10.59,4.6,14.88,8.34,2.46,2.13,4.66,4.55,6.56,7.21.33.45.65.92.96,1.39,3.85,5.86,6.28,12.78,6.74,20.29Z"/>
            </g>
            <g class="cls-3">
              <path class="cls-1" d="m463.13,415.23l-51.33,65.28c-6.78-4.32-12.25-10.56-15.62-18l52.51-56.33c5.42,2,10.34,5.11,14.44,9.06Z"/>
            </g>
            <g class="cls-3">
              <path class="cls-1" d="m470.46,424.61l-37.43,62.42c-4.32-.12-8.48-.9-12.39-2.25l48.74-61.95c.39.58.74,1.18,1.08,1.79Z"/>
            </g>
            <g class="cls-3">
              <path class="cls-1" d="m620.89,403.91l-51.52,65.53c-6.54-4.63-11.71-11.13-14.72-18.77l51.35-55.1c5.53,1.74,10.59,4.6,14.88,8.34Z"/>
            </g>
            <g class="cls-3">
              <path class="cls-1" d="m628.41,412.51l-38.66,64.45c-4.14-.36-8.13-1.35-11.86-2.85l49.56-62.99c.33.45.65.92.96,1.39Z"/>
            </g>
            <path class="cls-12" d="m477.84,445.61l-3.95-5.78c1.31-.9,32.69-21.81,79.56-3.52l-2.54,6.52c-43.27-16.89-72.77,2.58-73.06,2.78Z"/>
            <path class="cls-12" d="m434.18,490.55c-.41,0-.83,0-1.24-.02-4.6-.13-9.12-.95-13.45-2.44-3.4-1.17-6.62-2.73-9.58-4.63-7.43-4.73-13.28-11.48-16.92-19.51-2.26-4.97-3.58-10.3-3.92-15.82-1.55-24.89,17.44-46.4,42.34-47.96,6.35-.4,12.57.52,18.49,2.72,5.86,2.16,11.12,5.46,15.65,9.82,2.58,2.48,4.86,5.25,6.77,8.24.37.55.78,1.22,1.19,1.97,3.44,5.99,5.41,12.6,5.85,19.59h0c.75,12.06-3.24,23.69-11.24,32.75-8,9.06-19.04,14.46-31.09,15.21-.94.06-1.89.09-2.86.09Zm.1-83.46c-.81,0-1.62.02-2.43.08-10.19.64-19.53,5.2-26.29,12.86-6.76,7.66-10.13,17.49-9.5,27.68.29,4.67,1.4,9.17,3.31,13.37,3.07,6.79,8.02,12.49,14.31,16.5,2.5,1.61,5.22,2.92,8.09,3.91,3.65,1.26,7.47,1.95,11.35,2.06,1.17.03,2.35.01,3.48-.06,10.19-.63,19.52-5.2,26.28-12.86,6.76-7.66,10.13-17.49,9.5-27.68h0c-.37-5.91-2.04-11.49-4.96-16.58-.35-.62-.65-1.12-.95-1.58-1.65-2.58-3.57-4.92-5.76-7.02-3.83-3.69-8.28-6.48-13.23-8.3-4.25-1.58-8.68-2.37-13.2-2.37Z"/>
            <path class="cls-12" d="m593.46,480.62c-1.36,0-2.71-.06-4.03-.18-4.39-.38-8.71-1.42-12.85-3.09-3.3-1.34-6.41-3.04-9.25-5.07-7.2-5.1-12.71-12.13-15.94-20.34-1.72-4.36-2.74-8.98-3.04-13.74-.75-12.06,3.24-23.69,11.23-32.75,8-9.06,19.04-14.46,31.1-15.21,5.57-.35,11.08.32,16.37,1.98,5.98,1.88,11.4,4.92,16.13,9.04,2.66,2.31,5.06,4.94,7.11,7.81.34.47.7.99,1.04,1.51,4.29,6.54,6.82,14.14,7.31,21.99h0c1.55,24.89-17.44,46.4-42.33,47.95-.95.06-1.9.09-2.85.09Zm.09-83.46c-.81,0-1.61.03-2.42.08-10.19.64-19.53,5.2-26.29,12.86s-10.13,17.48-9.49,27.68c.25,4.02,1.11,7.93,2.57,11.61,2.73,6.94,7.39,12.88,13.48,17.2,2.4,1.72,5.03,3.15,7.81,4.28,3.48,1.4,7.14,2.28,10.85,2.6,1.91.17,3.87.2,5.82.08,21.04-1.31,37.09-19.49,35.78-40.53-.41-6.64-2.55-13.07-6.18-18.59-.28-.43-.57-.85-.86-1.25-1.75-2.45-3.77-4.67-6.03-6.62-4-3.49-8.59-6.06-13.63-7.65-3.7-1.16-7.53-1.75-11.41-1.75Z"/>
            <path class="cls-1" d="m459.9,315.52c2.34,3.26,5.26,5.89,8.35,8.18,3.1,2.28,6.45,4.13,9.92,5.65l2.64,1.05c.86.38,1.8.59,2.69.9,1.77.65,3.65,1.01,5.47,1.49.9.26,1.85.38,2.79.55l2.79.5,5.66.64-3.71,3.33c0-1.09.04-2.03.1-3.05.06-1,.14-2,.27-3,.26-2.01.62-4.03,1.29-6.15.58-1.83,2.53-2.84,4.35-2.26.6.19,1.11.53,1.51.96l.13.15c.18.2.52.56.81.85.3.31.62.61.94.91.65.6,1.33,1.16,2.03,1.7,1.41,1.07,2.89,2.03,4.44,2.83,1.54.81,3.16,1.43,4.8,1.89l1.24.31,1.26.2c.42.09.84.13,1.27.15l1.28.09-2.51,4.68c-.16-.27-.25-.45-.35-.65-.11-.2-.2-.4-.29-.59-.18-.39-.36-.78-.51-1.16-.33-.77-.58-1.56-.85-2.34-.48-1.58-.91-3.16-1.16-4.77-.54-3.21-.71-6.48-.35-9.67.04-.8.21-1.59.33-2.38.13-.79.24-1.57.48-2.34l.61-2.3c.24-.75.54-1.49.81-2.22.5-1.49,1.3-2.85,1.97-4.24.31-.71.81-1.33,1.21-1.98.42-.65.84-1.29,1.27-1.92-.42,1.49-.94,2.91-1.31,4.37-.33,1.48-.75,2.9-.91,4.39-.54,2.91-.6,5.85-.48,8.72.13,2.87.68,5.69,1.46,8.4.4,1.35.88,2.67,1.42,3.95.29.63.57,1.26.89,1.86.15.31.31.6.47.89.08.15.16.29.24.42.08.13.17.28.21.34.98,1.27.74,3.09-.54,4.07-.51.39-1.1.58-1.69.6h-.29c-2.23.07-4.51,0-6.69-.52-2.19-.46-4.32-1.16-6.3-2.13-1.99-.95-3.88-2.06-5.63-3.37-.87-.66-1.72-1.34-2.53-2.07-.41-.36-.81-.74-1.2-1.13-.41-.4-.75-.76-1.22-1.3l6-1.15c-.48,1.46-.82,3.15-1.06,4.87-.11.86-.23,1.73-.31,2.61-.08.86-.15,1.79-.18,2.59v.26c-.08,1.78-1.57,3.17-3.35,3.1-.12,0-.24-.02-.35-.03-2.05-.31-4.1-.63-6.13-1l-3.03-.74c-1.01-.26-2.02-.47-3-.84-1.98-.66-3.95-1.3-5.84-2.19-.95-.44-1.92-.79-2.83-1.32l-2.74-1.5c-3.55-2.17-6.87-4.73-9.66-7.77-.7-.76-1.38-1.53-1.99-2.35-.64-.8-1.21-1.66-1.77-2.51-1.09-1.72-2.05-3.53-2.66-5.45Z"/>
            <path class="cls-1" d="m557.83,778.89h0s-.77.14-.77.14h0c-92.16,15.68-148.83-26.98-160.73-99.49-7.61-46.3,11.03-99.12,16.89-121.22,47.22,9.9,128.95,13.91,212.18-16.65,12.94,18.88,32.21,53.16,40.57,99.23,13.13,72.3-16.05,121.82-108.14,137.99Z"/>
            <path class="cls-8" d="m670.42,751.4s1.72-7.09-4.62-16.67c-6.34-9.58-15.92-4.16-17.75,4.58,0,0-4.89-6.84-12.13-5.16s-9,14.88-9,14.88c0,0-6.88-5.02-13.31-2.63s-6.47,15.14-2.42,22.6c2.09,3.85,19.35,33.63,41.6,29.78,15.36-2.66,17.42-45.85,17.63-47.38Z"/>
          </g>
        </g>
      </g>
    </g>
  </g>
</svg>